<svg width="16" height="16" viewBox="0 0 16 16" fill="none" xmlns="http://www.w3.org/2000/svg">
<path d="M0.823223 14.0454L0.646447 14.2222L0.823223 14.399L1.601 15.1768L1.77778 15.3536L1.95455 15.1768L8 9.13133L14.0454 15.1768L14.2222 15.3536L14.399 15.1768L15.1768 14.399L15.3536 14.2222L15.1768 14.0454L9.13133 8L15.1768 1.95455L15.3536 1.77778L15.1768 1.601L14.399 0.823223L14.2222 0.646447L14.0454 0.823223L8 6.86867L1.95455 0.823223L1.77778 0.646447L1.601 0.823223L0.823223 1.601L0.646447 1.77778L0.823223 1.95455L6.86867 8L0.823223 14.0454Z" fill="white" stroke="white" stroke-width="0.5"/>
</svg>
